<svg width="391" height="436" viewBox="0 0 391 436" fill="none" xmlns="http://www.w3.org/2000/svg">
<path d="M180.398 435.2C145.598 435.2 114.598 426.6 87.398 409.4C60.198 392.2 38.798 367.4 23.198 335C7.99795 302.2 0.397949 263.2 0.397949 218C0.397949 172.8 7.99795 134 23.198 101.6C38.798 68.8 60.198 43.8 87.398 26.6C114.598 9.40004 145.598 0.800049 180.398 0.800049C215.198 0.800049 246.198 9.40004 273.398 26.6C300.598 43.8 321.798 68.8 336.998 101.6C352.598 134 360.398 172.8 360.398 218C360.398 263.2 352.598 302.2 336.998 335C321.798 367.4 300.598 392.2 273.398 409.4C246.198 426.6 215.198 435.2 180.398 435.2ZM180.398 353C205.998 353 225.998 342 240.398 320C255.198 298 262.598 264 262.598 218C262.598 172 255.198 138 240.398 116C225.998 94 205.998 83 180.398 83C155.198 83 135.198 94 120.398 116C105.998 138 98.798 172 98.798 218C98.798 264 105.998 298 120.398 320C135.198 342 155.198 353 180.398 353Z" fill="url(#paint0_linear_607_19)"/>
<path d="M225.252 249.89C212.162 249.89 201.452 245.47 193.122 236.63C184.962 227.62 180.882 215.635 180.882 200.675C180.882 185.715 184.962 173.815 193.122 164.975C201.452 155.965 212.162 151.46 225.252 151.46C238.342 151.46 248.967 155.965 257.127 164.975C265.287 173.815 269.367 185.715 269.367 200.675C269.367 215.635 265.287 227.62 257.127 236.63C248.967 245.47 238.342 249.89 225.252 249.89ZM331.587 153.5H361.932L240.042 332H209.697L331.587 153.5ZM225.252 228.98C231.032 228.98 235.537 226.6 238.767 221.84C242.167 217.08 243.867 210.025 243.867 200.675C243.867 191.325 242.167 184.27 238.767 179.51C235.537 174.75 231.032 172.37 225.252 172.37C219.642 172.37 215.137 174.835 211.737 179.765C208.337 184.525 206.637 191.495 206.637 200.675C206.637 209.855 208.337 216.91 211.737 221.84C215.137 226.6 219.642 228.98 225.252 228.98ZM346.377 334.04C337.877 334.04 330.227 332.085 323.427 328.175C316.797 324.095 311.612 318.315 307.872 310.835C304.132 303.355 302.262 294.685 302.262 284.825C302.262 274.965 304.132 266.295 307.872 258.815C311.612 251.335 316.797 245.64 323.427 241.73C330.227 237.65 337.877 235.61 346.377 235.61C359.467 235.61 370.092 240.115 378.252 249.125C386.582 257.965 390.747 269.865 390.747 284.825C390.747 299.785 386.582 311.77 378.252 320.78C370.092 329.62 359.467 334.04 346.377 334.04ZM346.377 313.13C352.157 313.13 356.662 310.75 359.892 305.99C363.292 301.06 364.992 294.005 364.992 284.825C364.992 275.645 363.292 268.675 359.892 263.915C356.662 258.985 352.157 256.52 346.377 256.52C340.767 256.52 336.262 258.9 332.862 263.66C329.462 268.42 327.762 275.475 327.762 284.825C327.762 294.175 329.462 301.23 332.862 305.99C336.262 310.75 340.767 313.13 346.377 313.13Z" fill="url(#paint1_linear_607_19)"/>
<defs>
<linearGradient id="paint0_linear_607_19" x1="-72.7568" y1="-288.667" x2="514.393" y2="494.764" gradientUnits="userSpaceOnUse">
<stop stop-color="#4FFFCA"/>
<stop offset="0.745078" stop-color="#1E3A37"/>
<stop offset="0.982684" stop-color="#191A1A"/>
</linearGradient>
<linearGradient id="paint1_linear_607_19" x1="355.997" y1="288.5" x2="237.497" y2="156" gradientUnits="userSpaceOnUse">
<stop stop-color="#17E5CE"/>
<stop offset="1" stop-color="#4FFFCA"/>
</linearGradient>
</defs>
</svg>
